<svg width="500" height="116" viewBox="0 0 500 116" fill="none" xmlns="http://www.w3.org/2000/svg">
<path d="M38.2758 40.3143V28.1608H4.73516V83.4043H17.3622V63.122H37.8813V50.9684H17.3622V40.3143H38.2758ZM73.9893 43.9446V47.6538C71.385 44.6549 67.5179 42.8397 62.2303 42.8397C51.8919 42.8397 43.3686 51.9155 43.3686 63.6744C43.3686 75.4334 51.8919 84.5091 62.2303 84.5091C67.5179 84.5091 71.385 82.694 73.9893 79.695V83.4043H85.8272V43.9446H73.9893ZM64.5979 73.3026C59.1525 73.3026 55.2065 69.5934 55.2065 63.6744C55.2065 57.7555 59.1525 54.0463 64.5979 54.0463C70.0433 54.0463 73.9893 57.7555 73.9893 63.6744C73.9893 69.5934 70.0433 73.3026 64.5979 73.3026ZM132.393 83.4043L117.635 63.6744L131.999 43.9446H118.188L106.35 61.2279V28.1608H94.512V83.4043H106.35V65.9631L118.977 83.4043H132.393ZM144.932 68.4096H172.949C173.264 66.9101 173.422 65.3317 173.422 63.6744C173.422 51.7576 164.899 42.8397 153.377 42.8397C140.907 42.8397 132.384 51.9155 132.384 63.6744C132.384 75.4334 140.749 84.5091 154.245 84.5091C161.742 84.5091 167.582 81.7469 171.449 76.3804L161.979 70.935C160.4 72.6712 157.638 73.9339 154.402 73.9339C150.062 73.9339 146.432 72.5134 144.932 68.4096ZM144.695 59.5706C145.8 55.5457 148.799 53.336 153.298 53.336C156.849 53.336 160.4 54.9933 161.663 59.5706H144.695Z" fill="#F03834"/>
<path d="M169.058 13.3097C164.808 7.91775 168.648 0 175.514 0L448.537 0C452.932 0 457.072 2.0683 459.712 5.58341L491.669 48.1397C496.583 54.684 496.49 63.7129 491.443 70.1548L459.715 110.644C457.066 114.025 453.01 116 448.715 116H175.514C168.648 116 164.808 108.082 169.058 102.69L200.272 63.0889C202.625 60.1042 202.625 55.8958 200.272 52.911L169.058 13.3097Z" fill="#F03834"/>
<path d="M248.414 28.1608H226.317V83.4043H248.414C263.646 83.4043 275.247 71.4085 275.247 55.7825C275.247 40.1565 263.646 28.1608 248.414 28.1608ZM248.414 71.2507H238.944V40.3143H248.414C257.095 40.3143 263.093 46.3122 263.093 55.7825C263.093 65.2528 257.095 71.2507 248.414 71.2507ZM287.871 40.4722C291.738 40.4722 294.973 37.2365 294.973 33.3694C294.973 29.5024 291.738 26.2667 287.871 26.2667C284.004 26.2667 280.768 29.5024 280.768 33.3694C280.768 37.2365 284.004 40.4722 287.871 40.4722ZM281.952 83.4043H293.79V43.9446H281.952V83.4043ZM314.29 50.9684V43.9446H302.452V83.4043H314.29V65.5685C314.29 57.7555 321.235 55.7825 326.128 56.5717V43.1554C321.156 43.1554 315.869 45.6808 314.29 50.9684ZM341.081 68.4096H369.097C369.413 66.9101 369.571 65.3317 369.571 63.6744C369.571 51.7576 361.047 42.8397 349.525 42.8397C337.056 42.8397 328.533 51.9155 328.533 63.6744C328.533 75.4334 336.898 84.5091 350.393 84.5091C357.891 84.5091 363.731 81.7469 367.598 76.3804L358.127 70.935C356.549 72.6712 353.787 73.9339 350.551 73.9339C346.21 73.9339 342.58 72.5134 341.081 68.4096ZM340.844 59.5706C341.949 55.5457 344.948 53.336 349.446 53.336C352.998 53.336 356.549 54.9933 357.812 59.5706H340.844ZM394.84 84.5091C402.574 84.5091 409.282 80.4842 412.676 74.3285L402.338 68.4096C401.075 71.1718 398.155 72.8291 394.682 72.8291C389.553 72.8291 385.764 69.1199 385.764 63.6744C385.764 58.229 389.553 54.5198 394.682 54.5198C398.155 54.5198 400.996 56.1771 402.338 58.9393L412.676 52.9414C409.282 46.8646 402.495 42.8397 394.84 42.8397C382.844 42.8397 373.927 51.9155 373.927 63.6744C373.927 75.4334 382.844 84.5091 394.84 84.5091ZM440.563 55.309V43.9446H432.435V32.8959L420.597 36.4473V43.9446H414.283V55.309H420.597V69.2777C420.597 80.3264 425.095 84.9826 440.563 83.4043V72.6712C435.355 72.9869 432.435 72.6712 432.435 69.2777V55.309H440.563Z" fill="white"/>
<path d="M234.777 104.319H228.239C227.662 104.319 227.373 104.161 227.373 103.844V93.069C227.373 92.752 227.662 92.5935 228.239 92.5935C228.811 92.5935 229.097 92.752 229.097 93.069V103.368H234.777C235.354 103.368 235.643 103.527 235.643 103.844C235.643 104.161 235.354 104.319 234.777 104.319ZM245.263 104.319H237.638C237.021 104.319 236.713 104.149 236.713 103.81V93.3067C236.713 92.9671 237.021 92.7972 237.638 92.7972H245.263C245.84 92.7972 246.129 92.9557 246.129 93.2727C246.129 93.5897 245.84 93.7482 245.263 93.7482H238.436V98.0785H244.185C244.756 98.0785 245.042 98.237 245.042 98.554C245.042 98.8709 244.756 99.0294 244.185 99.0294H238.436V103.368H245.263C245.84 103.368 246.129 103.527 246.129 103.844C246.129 104.161 245.84 104.319 245.263 104.319ZM257.642 104.523C257.127 104.523 256.816 104.401 256.708 104.158L255.155 100.634H249.865L248.303 104.26C248.229 104.435 248.017 104.523 247.666 104.523C247.207 104.523 246.978 104.41 246.978 104.183C246.978 104.166 246.984 104.141 246.995 104.107L251.818 92.9416C251.914 92.7095 252.237 92.5935 252.786 92.5935C253.267 92.5935 253.561 92.7123 253.669 92.9501L258.525 103.954C258.542 103.994 258.551 104.03 258.551 104.064C258.551 104.37 258.248 104.523 257.642 104.523ZM254.73 99.6832L252.48 94.5803L250.281 99.6832H254.73ZM268.298 104.523C267.828 104.523 267.511 104.413 267.347 104.192L263.204 98.6643L261.336 100.371V104.09C261.336 104.379 261.047 104.523 260.47 104.523C259.898 104.523 259.612 104.379 259.612 104.09V93.0265C259.612 92.7378 259.898 92.5935 260.47 92.5935C261.047 92.5935 261.336 92.7378 261.336 93.0265V98.7747L267.874 92.7888C268.01 92.6586 268.228 92.5935 268.528 92.5935C268.658 92.5935 268.779 92.6076 268.893 92.6359C269.17 92.7038 269.309 92.8199 269.309 92.984C269.309 93.0406 269.275 93.1001 269.207 93.1623L264.494 97.4841L269.258 103.835C269.303 103.897 269.326 103.957 269.326 104.013C269.326 104.246 269.099 104.404 268.646 104.489C268.511 104.512 268.394 104.523 268.298 104.523ZM283.463 103.428C282.449 104.158 281.269 104.523 279.922 104.523C278.128 104.523 276.727 103.968 275.719 102.859C274.712 101.749 274.208 100.317 274.208 98.5624C274.208 96.802 274.731 95.3671 275.779 94.2577C276.826 93.1482 278.244 92.5935 280.032 92.5935C281.08 92.5935 282.115 92.868 283.14 93.4171C284.17 93.9605 284.807 94.7841 285.05 95.8879C285.09 96.035 285.11 96.1483 285.11 96.2275C285.11 96.4256 284.937 96.5247 284.592 96.5247C284.264 96.5247 284.088 96.4341 284.066 96.253C283.935 95.2737 283.457 94.518 282.631 93.9859C281.81 93.4539 280.944 93.1878 280.032 93.1878C278.498 93.1878 277.318 93.7256 276.492 94.8011C275.665 95.8709 275.252 97.1247 275.252 98.5624C275.252 99.9945 275.643 101.248 276.424 102.324C277.205 103.394 278.371 103.929 279.922 103.929C280.947 103.929 281.855 103.64 282.648 103.063C283.61 102.366 284.091 101.633 284.091 100.863V99.1992H279.965C279.614 99.1992 279.438 99.1002 279.438 98.9021C279.438 98.704 279.614 98.6049 279.965 98.6049H284.609C284.954 98.6049 285.127 98.704 285.127 98.9021V100.872C285.127 101.319 284.934 101.795 284.549 102.298C284.17 102.802 283.808 103.179 283.463 103.428ZM294.832 104.319H287.207C286.817 104.319 286.621 104.209 286.621 103.988V93.1199C286.621 92.8991 286.817 92.7888 287.207 92.7888H294.832C295.183 92.7888 295.358 92.8878 295.358 93.0859C295.358 93.284 295.183 93.3831 294.832 93.3831H287.666V98.2483H293.753C294.099 98.2483 294.271 98.3473 294.271 98.5455C294.271 98.7436 294.099 98.8426 293.753 98.8426H287.666V103.725H294.832C295.183 103.725 295.358 103.824 295.358 104.022C295.358 104.22 295.183 104.319 294.832 104.319ZM305.657 104.523C305.34 104.523 305.131 104.452 305.029 104.311L297.506 93.8671V104.353C297.506 104.466 297.396 104.523 297.175 104.523C296.954 104.523 296.844 104.466 296.844 104.353V92.9756C296.844 92.7208 297.07 92.5935 297.523 92.5935C297.835 92.5935 298.041 92.6671 298.143 92.8142L305.674 103.249V92.7718C305.674 92.6529 305.785 92.5935 306.006 92.5935C306.226 92.5935 306.337 92.6529 306.337 92.7718V104.149C306.337 104.398 306.11 104.523 305.657 104.523ZM316.245 104.319H308.621C308.23 104.319 308.035 104.209 308.035 103.988V93.1199C308.035 92.8991 308.23 92.7888 308.621 92.7888H316.245C316.596 92.7888 316.772 92.8878 316.772 93.0859C316.772 93.284 316.596 93.3831 316.245 93.3831H309.079V98.2483H315.167C315.512 98.2483 315.685 98.3473 315.685 98.5455C315.685 98.7436 315.512 98.8426 315.167 98.8426H309.079V103.725H316.245C316.596 103.725 316.772 103.824 316.772 104.022C316.772 104.22 316.596 104.319 316.245 104.319ZM327.53 104.523C327.394 104.523 327.278 104.497 327.181 104.447C326.576 104.13 326.112 103.699 325.789 103.156C325.472 102.613 325.189 102.052 324.94 101.475C324.702 100.937 324.411 100.379 324.065 99.8021C323.726 99.2191 323.211 98.9275 322.52 98.9275H319.302V104.226C319.302 104.424 319.127 104.523 318.776 104.523C318.43 104.523 318.258 104.424 318.258 104.226V93.1029C318.258 92.9048 318.43 92.8057 318.776 92.8057H324.031C324.892 92.8057 325.673 93.0859 326.375 93.6463C327.082 94.201 327.436 94.9426 327.436 95.8709C327.436 96.7086 327.125 97.4105 326.502 97.9766C325.879 98.5426 325.175 98.8568 324.388 98.9191C324.801 99.2643 325.112 99.6323 325.322 100.023C325.531 100.408 325.741 100.844 325.95 101.33C326.182 101.863 326.44 102.378 326.723 102.876C327.006 103.374 327.391 103.75 327.878 104.005C327.991 104.056 328.047 104.13 328.047 104.226C328.047 104.299 328.002 104.364 327.912 104.421C327.793 104.489 327.665 104.523 327.53 104.523ZM324.031 98.3332C325.605 98.3332 326.392 97.5124 326.392 95.8709C326.392 94.2237 325.605 93.4001 324.031 93.4001H319.302V98.3332H324.031ZM339 104.523C338.672 104.523 338.474 104.447 338.406 104.294L336.793 100.515H330.977L329.347 104.396C329.313 104.48 329.197 104.523 328.998 104.523C328.795 104.523 328.693 104.472 328.693 104.37C328.693 104.364 328.698 104.345 328.71 104.311L333.524 92.8057C333.586 92.6642 333.784 92.5935 334.118 92.5935C334.458 92.5935 334.659 92.6699 334.721 92.8227L339.552 104.141C339.575 104.186 339.586 104.22 339.586 104.243C339.586 104.43 339.391 104.523 339 104.523ZM336.538 99.921L333.855 93.6293L331.223 99.921H336.538ZM343.484 104.421C343.133 104.421 342.957 104.322 342.957 104.124V93.2897H339.179C338.833 93.2897 338.661 93.1907 338.661 92.9925C338.661 92.7944 338.833 92.6954 339.179 92.6954H347.78C348.125 92.6954 348.298 92.7944 348.298 92.9925C348.298 93.1907 348.125 93.2897 347.78 93.2897H344.002V104.124C344.002 104.322 343.829 104.421 343.484 104.421ZM353.129 104.523C351.425 104.523 350.075 103.948 349.079 102.799C348.083 101.65 347.585 100.238 347.585 98.5624C347.585 96.8869 348.083 95.4747 349.079 94.3256C350.075 93.1708 351.425 92.5935 353.129 92.5935C354.833 92.5935 356.183 93.1708 357.179 94.3256C358.175 95.4747 358.673 96.8869 358.673 98.5624C358.673 100.238 358.175 101.65 357.179 102.799C356.183 103.948 354.833 104.523 353.129 104.523ZM353.129 103.929C354.595 103.929 355.71 103.377 356.474 102.273C357.244 101.163 357.629 99.9266 357.629 98.5624C357.629 97.1926 357.244 95.9558 356.474 94.852C355.71 93.7425 354.595 93.1878 353.129 93.1878C351.663 93.1878 350.545 93.7425 349.775 94.852C349.011 95.9558 348.629 97.1926 348.629 98.5624C348.629 99.9266 349.011 101.163 349.775 102.273C350.545 103.377 351.663 103.929 353.129 103.929ZM369.219 104.523C369.083 104.523 368.967 104.497 368.871 104.447C368.265 104.13 367.801 103.699 367.478 103.156C367.161 102.613 366.878 102.052 366.629 101.475C366.392 100.937 366.1 100.379 365.755 99.8021C365.415 99.2191 364.9 98.9275 364.209 98.9275H360.991V104.226C360.991 104.424 360.816 104.523 360.465 104.523C360.12 104.523 359.947 104.424 359.947 104.226V93.1029C359.947 92.9048 360.12 92.8057 360.465 92.8057H365.721C366.581 92.8057 367.362 93.0859 368.064 93.6463C368.772 94.201 369.126 94.9426 369.126 95.8709C369.126 96.7086 368.814 97.4105 368.192 97.9766C367.569 98.5426 366.864 98.8568 366.077 98.9191C366.491 99.2643 366.802 99.6323 367.011 100.023C367.221 100.408 367.43 100.844 367.64 101.33C367.872 101.863 368.129 102.378 368.412 102.876C368.695 103.374 369.08 103.75 369.567 104.005C369.68 104.056 369.737 104.13 369.737 104.226C369.737 104.299 369.692 104.364 369.601 104.421C369.482 104.489 369.355 104.523 369.219 104.523ZM365.721 98.3332C367.294 98.3332 368.081 97.5124 368.081 95.8709C368.081 94.2237 367.294 93.4001 365.721 93.4001H360.991V98.3332H365.721Z" fill="white"/>
</svg>
